<svg width="192" height="48" viewBox="0 0 192 48" fill="none" xmlns="http://www.w3.org/2000/svg">
<rect width="192" height="48" rx="24" fill="#F6F8FC"/>
<path d="M62.6 22.192C63.112 22.4373 63.5173 22.7893 63.816 23.248C64.1253 23.7067 64.28 24.2347 64.28 24.832C64.28 25.728 63.9653 26.48 63.336 27.088C62.7067 27.696 61.9387 28 61.032 28H56.2V16.8H60.68C61.5547 16.8 62.296 17.0933 62.904 17.68C63.512 18.2667 63.816 18.992 63.816 19.856C63.816 20.848 63.4107 21.6267 62.6 22.192ZM60.68 18.192H57.688V21.616H60.68C61.1493 21.616 61.544 21.4507 61.864 21.12C62.184 20.7893 62.344 20.384 62.344 19.904C62.344 19.4347 62.1787 19.0347 61.848 18.704C61.528 18.3627 61.1387 18.192 60.68 18.192ZM61.032 26.608C61.5333 26.608 61.9547 26.432 62.296 26.08C62.6373 25.728 62.808 25.296 62.808 24.784C62.808 24.2827 62.632 23.856 62.28 23.504C61.9387 23.152 61.5227 22.976 61.032 22.976H57.688V26.608H61.032ZM72.5312 28H70.8993L68.6593 24.976L66.4033 28H64.7713L67.8433 23.888L64.9473 20H66.5953L68.6593 22.784L70.7233 20H72.3553L69.4753 23.872L72.5312 28ZM80.0111 26.992C79.1898 27.8027 78.1925 28.208 77.0191 28.208C75.8458 28.208 74.8485 27.8027 74.0271 26.992C73.2165 26.1813 72.8111 25.184 72.8111 24C72.8111 22.816 73.2165 21.8187 74.0271 21.008C74.8485 20.1973 75.8458 19.792 77.0191 19.792C78.1925 19.792 79.1898 20.1973 80.0111 21.008C80.8325 21.8187 81.2431 22.816 81.2431 24C81.2431 25.184 80.8325 26.1813 80.0111 26.992ZM77.0191 26.848C77.8191 26.848 78.4911 26.576 79.0351 26.032C79.5791 25.488 79.8511 24.8107 79.8511 24C79.8511 23.1893 79.5791 22.512 79.0351 21.968C78.4911 21.424 77.8191 21.152 77.0191 21.152C76.2298 21.152 75.5631 21.424 75.0191 21.968C74.4751 22.512 74.2031 23.1893 74.2031 24C74.2031 24.8107 74.4751 25.488 75.0191 26.032C75.5631 26.576 76.2298 26.848 77.0191 26.848ZM89.4516 26.672H90.5556V30.144H89.1796V28H83.1796V30.144H81.8036V26.672H82.7796C83.2916 25.968 83.5476 24.9813 83.5476 23.712V20H89.4516V26.672ZM84.3636 26.672H88.0756V21.296H84.9236V23.712C84.9236 24.9067 84.737 25.8933 84.3636 26.672ZM101.384 23.888C102.205 24.2293 102.616 24.848 102.616 25.744C102.616 26.4053 102.392 26.9493 101.944 27.376C101.507 27.792 100.877 28 100.056 28H96.056V20H99.736C100.536 20 101.155 20.2027 101.592 20.608C102.029 21.0027 102.248 21.5253 102.248 22.176C102.248 22.944 101.96 23.5147 101.384 23.888ZM99.672 21.248H97.416V23.344H99.672C100.483 23.344 100.888 22.9867 100.888 22.272C100.888 21.5893 100.483 21.248 99.672 21.248ZM99.976 26.736C100.381 26.736 100.691 26.64 100.904 26.448C101.128 26.256 101.24 25.984 101.24 25.632C101.24 25.3013 101.128 25.0453 100.904 24.864C100.691 24.672 100.381 24.576 99.976 24.576H97.416V26.736H99.976ZM114.887 28H113.159L109.511 24.208V28H108.118V20H109.511V23.536L112.967 20H114.759L110.935 23.872L114.887 28ZM122.071 20H123.463V28H122.071V26.624C121.377 27.68 120.369 28.208 119.047 28.208C117.927 28.208 116.972 27.8027 116.183 26.992C115.393 26.1707 114.999 25.1733 114.999 24C114.999 22.8267 115.393 21.8347 116.183 21.024C116.972 20.2027 117.927 19.792 119.047 19.792C120.369 19.792 121.377 20.32 122.071 21.376V20ZM119.223 26.864C120.033 26.864 120.711 26.592 121.255 26.048C121.799 25.4933 122.071 24.8107 122.071 24C122.071 23.1893 121.799 22.512 121.255 21.968C120.711 21.4133 120.033 21.136 119.223 21.136C118.423 21.136 117.751 21.4133 117.207 21.968C116.663 22.512 116.391 23.1893 116.391 24C116.391 24.8107 116.663 25.4933 117.207 26.048C117.751 26.592 118.423 26.864 119.223 26.864ZM129.204 28.208C128.02 28.208 127.044 27.8187 126.276 27.04C125.508 26.2613 125.124 25.2587 125.124 24.032C125.124 22.6667 125.321 21.616 125.716 20.88C126.121 20.144 126.942 19.4773 128.18 18.88C128.404 18.7733 128.708 18.6347 129.092 18.464C129.486 18.2933 129.774 18.1653 129.956 18.08C130.137 17.984 130.34 17.8613 130.564 17.712C130.788 17.552 130.953 17.3813 131.06 17.2C131.177 17.008 131.262 16.7893 131.316 16.544L132.436 17.184C132.404 17.3547 132.361 17.5147 132.308 17.664C132.254 17.8027 132.174 17.9413 132.068 18.08C131.972 18.208 131.886 18.32 131.812 18.416C131.737 18.512 131.609 18.6187 131.428 18.736C131.257 18.8427 131.129 18.9227 131.044 18.976C130.969 19.0293 130.814 19.1093 130.58 19.216C130.356 19.3227 130.201 19.3973 130.116 19.44C130.041 19.472 129.865 19.5467 129.588 19.664C129.31 19.7707 129.14 19.84 129.076 19.872C128.35 20.1813 127.817 20.496 127.476 20.816C127.145 21.136 126.905 21.5413 126.756 22.032C127.097 21.6053 127.524 21.2907 128.036 21.088C128.548 20.8853 129.06 20.784 129.572 20.784C130.574 20.784 131.422 21.1253 132.116 21.808C132.82 22.4907 133.172 23.3707 133.172 24.448C133.172 25.536 132.798 26.4373 132.052 27.152C131.305 27.856 130.356 28.208 129.204 28.208ZM127.332 26.16C127.833 26.6293 128.457 26.864 129.204 26.864C129.95 26.864 130.564 26.6347 131.044 26.176C131.534 25.7173 131.78 25.1413 131.78 24.448C131.78 23.7333 131.545 23.152 131.076 22.704C130.617 22.2453 130.009 22.016 129.252 22.016C128.569 22.016 127.95 22.2347 127.396 22.672C126.852 23.0987 126.58 23.664 126.58 24.368C126.58 25.0933 126.83 25.6907 127.332 26.16ZM140.458 20H141.578V28H140.202V22.384L135.77 28H134.65V20H136.026V25.616L140.458 20ZM149.233 20H150.625V28H149.233V24.656H145.089V28H143.697V20H145.089V23.328H149.233V20ZM153.72 24.64C153.858 25.3547 154.184 25.9093 154.696 26.304C155.218 26.6987 155.858 26.896 156.616 26.896C157.672 26.896 158.44 26.5067 158.92 25.728L160.104 26.4C159.325 27.6053 158.152 28.208 156.584 28.208C155.314 28.208 154.28 27.8133 153.48 27.024C152.69 26.224 152.296 25.216 152.296 24C152.296 22.7947 152.685 21.792 153.464 20.992C154.242 20.192 155.25 19.792 156.488 19.792C157.661 19.792 158.616 20.208 159.352 21.04C160.098 21.8613 160.472 22.8533 160.472 24.016C160.472 24.2187 160.456 24.4267 160.424 24.64H153.72ZM156.488 21.104C155.741 21.104 155.122 21.3173 154.632 21.744C154.141 22.16 153.837 22.72 153.72 23.424H159.064C158.946 22.6667 158.648 22.0907 158.168 21.696C157.688 21.3013 157.128 21.104 156.488 21.104ZM167.711 20V21.344H164.991V28H163.599V21.344H160.863V20H167.711Z" fill="#1B2E3F"/>
<path d="M34.9984 25.4756C36.3472 25.4756 37.5939 25.0955 38.5912 24.4497C39.3637 23.9551 40.3692 24.0368 41.0477 24.654C42.932 26.3625 44.0028 28.7863 43.9988 31.3328V32.4241C43.9988 33.5522 43.0832 34.4637 41.9551 34.4637H28.0418C26.9137 34.4637 25.9981 33.5522 25.9981 32.4241V31.3328C25.9899 28.7904 27.0608 26.3625 28.9451 24.6581C29.6236 24.0409 30.6331 23.9592 31.4016 24.4538C32.403 25.0955 33.6455 25.4756 34.9984 25.4756Z" fill="#B5BBDB"/>
<path d="M34.9976 23.6567C37.7923 23.6567 40.0578 21.3912 40.0578 18.5966C40.0578 15.8019 37.7923 13.5364 34.9976 13.5364C32.203 13.5364 29.9375 15.8019 29.9375 18.5966C29.9375 21.3912 32.203 23.6567 34.9976 23.6567Z" fill="#B5BBDB"/>
</svg>
