<svg width="30" height="30" viewBox="0 0 30 30" fill="none" xmlns="http://www.w3.org/2000/svg">
<circle cx="15" cy="15" r="15" fill="white"/>
<path d="M15 8C11.1342 8 8 11.1531 8 15.0423C8 18.5567 10.5595 21.4697 13.9065 22V17.0784H12.1283V15.0423H13.9065V13.4907C13.9065 11.7243 14.9517 10.7503 16.55 10.7503C17.3158 10.7503 18.1181 10.8876 18.1181 10.8876V12.6195H17.2332C16.3651 12.6195 16.0935 13.1632 16.0935 13.7203V15.0408H18.0334L17.7233 17.077H16.0935V21.9986C19.4405 21.4711 22 18.5574 22 15.0423C22 11.1531 18.8658 8 15 8Z" fill="#DDE0F0"/>
</svg>
