<svg width="155" height="175" viewBox="0 0 155 175" fill="none" xmlns="http://www.w3.org/2000/svg">
<path d="M133.695 0.620029L20.5055 0.758317C9.28312 0.772027 0.196662 9.88072 0.210372 21.1031L0.372411 153.733C0.386121 164.955 9.49481 174.042 20.7172 174.028L133.907 173.89C145.13 173.876 154.216 164.768 154.202 153.545L154.04 20.9152C154.027 9.69278 144.918 0.606318 133.695 0.620029Z" fill="#E7D8C9"/>
<path d="M131.88 16.856L22 16.9902C17.5817 16.9956 14.0044 20.5817 14.0098 25L14.144 134.88C14.1494 139.298 17.7355 142.876 22.1538 142.87L132.034 142.736C136.452 142.73 140.029 139.144 140.024 134.726L139.89 24.8462C139.884 20.4279 136.298 16.8506 131.88 16.856Z" fill="#E6BEAE"/>
<path d="M125.35 22.8713L28 22.9902C23.5817 22.9956 20.0044 26.5817 20.0098 31L20.1287 128.35C20.1341 132.768 23.7202 136.346 28.1385 136.34L125.488 136.221C129.907 136.216 133.484 132.63 133.479 128.211L133.36 30.8615C133.354 26.4432 129.768 22.8659 125.35 22.8713Z" fill="#E7D8C9"/>
<path d="M105.363 64.2247L71.7832 64.2657C69.5741 64.2684 67.7854 66.0615 67.7881 68.2706L67.8029 80.4106C67.8056 82.6198 69.5987 84.4084 71.8078 84.4057L105.388 84.3647C107.597 84.362 109.386 82.569 109.383 80.3598L109.368 68.2198C109.365 66.0107 107.572 64.222 105.363 64.2247Z" fill="#E6BEAE"/>
<path d="M105.394 89.6047L71.8145 89.6457C69.6053 89.6484 67.8166 91.4415 67.8193 93.6506L67.8342 105.791C67.8369 108 69.6299 109.788 71.8391 109.786L105.419 109.745C107.628 109.742 109.417 107.949 109.414 105.74L109.399 93.5998C109.397 91.3907 107.604 89.602 105.394 89.6047Z" fill="#E6BEAE"/>
<path d="M44.38 37.7193L37 37.7283C34.7909 37.731 33.0022 39.524 33.0049 41.7332L33.0276 60.3131C33.0303 62.5223 34.8233 64.3109 37.0325 64.3082L44.4125 64.2992C46.6216 64.2965 48.4103 62.5035 48.4076 60.2943L48.3849 41.7144C48.3822 39.5052 46.5891 37.7166 44.38 37.7193Z" fill="#F6F8FC"/>
<circle cx="77" cy="80" r="24" fill="white"/>
<path d="M77.043 69C71.0011 69 66 73.9152 66 79.957C66 85.9989 71.0011 91 77.043 91C83.0848 91 88 85.9989 88 79.957C88 73.9152 83.0848 69 77.043 69ZM82.8438 81.2461H78.332V85.8438C78.332 86.5545 77.7532 87.1328 77.043 87.1328C76.3323 87.1328 75.7539 86.5545 75.7539 85.8438V81.2461H71.1562C70.4455 81.2461 69.8672 80.6677 69.8672 79.957C69.8672 79.2463 70.4455 78.668 71.1562 78.668H75.7539V74.1562C75.7539 73.4455 76.3323 72.8672 77.043 72.8672C77.7532 72.8672 78.332 73.4455 78.332 74.1562V78.668H82.8438C83.554 78.668 84.1328 79.2463 84.1328 79.957C84.1328 80.6677 83.554 81.2461 82.8438 81.2461Z" fill="#7EA373"/>
<path d="M88.66 173.86C97.3088 173.86 104.32 166.849 104.32 158.2C104.32 149.551 97.3088 142.54 88.66 142.54C80.0112 142.54 73 149.551 73 158.2C73 166.849 80.0112 173.86 88.66 173.86Z" fill="#E6BEAE" stroke="white" stroke-miterlimit="10"/>
<path d="M88.6678 142.495L73.0078 142.514L73.0269 158.174L88.687 158.155L88.6678 142.495Z" fill="#E6BEAE" stroke="white" stroke-miterlimit="10"/>
<path d="M88.6602 158.2L88.6802 173.86" stroke="white" stroke-miterlimit="10"/>
<path d="M88.6602 158.2L104.32 158.18" stroke="white" stroke-miterlimit="10"/>
<path d="M88.6596 158.2L77.5996 169.29" stroke="white" stroke-miterlimit="10"/>
<path d="M99.7202 147.6L88.6602 158.68" stroke="white" stroke-miterlimit="10"/>
<path d="M88.6602 158.2L99.7502 169.26" stroke="white" stroke-miterlimit="10"/>
</svg>
