<svg width="30" height="30" viewBox="0 0 30 30" fill="none" xmlns="http://www.w3.org/2000/svg">
<circle cx="15" cy="15" r="15" fill="white"/>
<path fill-rule="evenodd" clip-rule="evenodd" d="M21.6292 10.4122C21.8368 10.9623 21.9471 11.5443 21.9549 12.1322C21.9982 12.8715 21.9984 13.1133 21.9999 14.9848L22 15.0109C22 16.907 21.9899 17.1437 21.9565 17.8903C21.9448 18.4717 21.8352 19.0445 21.6307 19.5878C21.4504 20.0517 21.1752 20.4729 20.8228 20.8248C20.4704 21.1767 20.0484 21.4513 19.5837 21.6313C19.0398 21.8351 18.4651 21.9451 17.8843 21.9565C17.1418 22 16.8985 22 15 22C13.1015 22 12.8644 21.9899 12.1157 21.9565C11.5337 21.9374 10.9592 21.8193 10.417 21.6073C9.95218 21.4277 9.52997 21.1532 9.17737 20.8015C8.82478 20.4497 8.54955 20.0285 8.36928 19.5645C8.16482 19.0204 8.0552 18.4476 8.04354 17.8671C8 17.1251 8 16.8829 8 14.9876C8 13.0923 8.01011 12.8555 8.04354 12.1081C8.05451 11.5284 8.16468 10.9549 8.36928 10.4122C8.54925 9.94816 8.82427 9.52668 9.17674 9.17479C9.52922 8.82289 9.9514 8.54834 10.4163 8.36867C10.96 8.16491 11.5343 8.05468 12.1149 8.04269C12.8574 8 13.1007 8 14.9992 8C16.8977 8 17.1348 8.00931 17.8827 8.04269C18.4635 8.05459 19.0382 8.16482 19.5822 8.36867C20.0469 8.54846 20.4691 8.82307 20.8215 9.17494C21.174 9.52682 21.449 9.94823 21.6292 10.4122ZM11.4005 14.9837C11.4005 16.966 13.009 18.5718 14.9946 18.5718C15.9478 18.5718 16.8619 18.1938 17.5359 17.5209C18.2099 16.848 18.5886 15.9353 18.5886 14.9837C18.5886 14.0321 18.2099 13.1194 17.5359 12.4465C16.8619 11.7736 15.9478 11.3956 14.9946 11.3956C13.009 11.3956 11.4005 13.0014 11.4005 14.9837ZM18.4108 12.0361C18.5125 12.0781 18.6216 12.0997 18.7317 12.0996C19.1943 12.0996 19.569 11.7255 19.569 11.2629C19.569 11.1531 19.5473 11.0443 19.5052 10.9429C19.4631 10.8414 19.4014 10.7492 19.3236 10.6715C19.2458 10.5939 19.1534 10.5323 19.0518 10.4903C18.9502 10.4482 18.8413 10.4266 18.7313 10.4266C18.6213 10.4266 18.5124 10.4482 18.4107 10.4903C18.3091 10.5323 18.2167 10.5939 18.139 10.6715C18.0611 10.7492 17.9994 10.8414 17.9574 10.9429C17.9152 11.0443 17.8936 11.1531 17.8936 11.2629C17.8935 11.3728 17.9151 11.4816 17.9572 11.5832C17.9993 11.6847 18.061 11.777 18.1388 11.8547C18.2166 11.9325 18.3091 11.9941 18.4108 12.0361Z" fill="#DDE0F0"/>
</svg>
