<svg width="30" height="30" viewBox="0 0 30 30" fill="none" xmlns="http://www.w3.org/2000/svg">
<circle cx="15" cy="15" r="15" fill="white"/>
<path d="M22.8514 19.0753C22.8514 19.0137 22.7877 19.0137 22.7877 18.9521C22.5331 18.4589 21.9601 17.8425 21.1962 17.1644C20.8143 16.8562 20.6233 16.6096 20.4959 16.4863C20.305 16.2397 20.305 16.0548 20.3686 15.8082C20.4323 15.6233 20.6869 15.3151 21.1326 14.7603C21.3872 14.4521 21.5145 14.2671 21.7055 14.0822C22.6604 12.8493 23.106 12.0479 22.9787 11.6781L22.915 11.6164C22.8514 11.5548 22.7877 11.4932 22.6604 11.4932C22.5331 11.4315 22.3421 11.4315 22.1511 11.4932H19.732C19.6684 11.4932 19.6684 11.4932 19.541 11.4932C19.4774 11.4932 19.4137 11.4932 19.4137 11.4932H19.3501H19.2864L19.2227 11.5548C19.1591 11.6164 19.1591 11.6164 19.1591 11.6781C18.9044 12.3562 18.5861 12.911 18.2678 13.5274C18.0769 13.8356 17.8859 14.1438 17.6949 14.3904C17.5039 14.637 17.3766 14.8219 17.2493 14.9452C17.122 15.0685 16.9946 15.1301 16.931 15.2534C16.8673 15.3151 16.74 15.3767 16.74 15.3151C16.6763 15.3151 16.6127 15.3151 16.6127 15.2534C16.549 15.1918 16.4854 15.1301 16.4217 15.0685C16.358 15.0068 16.358 14.8836 16.2944 14.7603C16.2944 14.637 16.2944 14.5137 16.2944 14.4521C16.2944 14.3904 16.2944 14.2055 16.2944 14.0822C16.2944 13.8973 16.2944 13.774 16.2944 13.7123C16.2944 13.5274 16.2944 13.2808 16.2944 13.0342C16.2944 12.7877 16.2944 12.6027 16.2944 12.4794C16.2944 12.3562 16.2944 12.1712 16.2944 12.0479C16.2944 11.863 16.2944 11.7397 16.2944 11.6781C16.2944 11.6164 16.2307 11.4931 16.2307 11.4315C16.1671 11.3699 16.1034 11.3082 16.0397 11.2466C15.9761 11.1849 15.8488 11.1849 15.7851 11.1233C15.4668 11.0616 15.0848 11 14.6392 11C13.6207 11 12.9204 11.0616 12.6658 11.1849C12.5384 11.2466 12.4111 11.3082 12.3475 11.4315C12.2201 11.5548 12.2201 11.6164 12.2838 11.6164C12.6021 11.6781 12.8567 11.8014 12.9841 11.9863L13.0477 12.1096C13.1114 12.1712 13.1114 12.2945 13.175 12.4794C13.2387 12.6644 13.2387 12.8493 13.2387 13.0959C13.2387 13.4658 13.2387 13.8356 13.2387 14.0822C13.2387 14.3904 13.175 14.5753 13.175 14.7603C13.175 14.9452 13.1114 15.0685 13.0477 15.1301C12.9841 15.2534 12.9841 15.3151 12.9204 15.3151C12.9204 15.3151 12.9204 15.3767 12.8567 15.3767C12.7931 15.3767 12.7294 15.4384 12.6021 15.4384C12.5384 15.4384 12.4111 15.3767 12.3475 15.3151C12.2201 15.2534 12.0928 15.1301 12.0292 15.0069C11.9018 14.8836 11.7745 14.6986 11.6472 14.4521C11.5199 14.2055 11.3289 13.9589 11.2016 13.589L11.0743 13.3425C11.0106 13.2192 10.8833 12.9726 10.756 12.6644C10.6286 12.3562 10.5013 12.1096 10.374 11.8014C10.3103 11.6781 10.2467 11.6164 10.183 11.5548H10.1194C10.1194 11.5548 10.0557 11.4932 9.99203 11.4932C9.92836 11.4932 9.86471 11.4315 9.80105 11.4315H7.50928C7.25464 11.4315 7.12732 11.4931 7.06366 11.5548L7 11.6164C7 11.6164 7 11.6781 7 11.7397C7 11.8014 7 11.863 7.06366 11.9863C7.38196 12.726 7.76392 13.4658 8.14588 14.2055C8.52785 14.8836 8.90981 15.5 9.16445 15.9315C9.48275 16.363 9.73739 16.7945 10.0557 17.1644C10.374 17.5343 10.565 17.7808 10.6286 17.9041C10.7559 18.0274 10.8196 18.089 10.8833 18.1507L11.0743 18.3356C11.2016 18.4589 11.3926 18.6438 11.6472 18.8288C11.9018 19.0137 12.2201 19.1986 12.5384 19.3836C12.8567 19.5685 13.2387 19.6918 13.6207 19.8151C14.0663 19.9384 14.4482 20 14.8302 19.9384H15.7851C15.9761 19.9384 16.1034 19.8767 16.2307 19.7534L16.2944 19.6918C16.2944 19.6301 16.358 19.6301 16.358 19.5685C16.358 19.5069 16.358 19.4452 16.358 19.3219C16.358 19.0753 16.358 18.8904 16.4217 18.7055C16.4854 18.5206 16.4854 18.3973 16.549 18.274C16.6127 18.1507 16.6763 18.089 16.74 18.0274C16.8037 17.9658 16.8673 17.9041 16.8673 17.9041H16.931C17.0583 17.8425 17.2493 17.9041 17.3766 18.0274C17.5676 18.1507 17.7586 18.3356 17.8859 18.5206C18.0132 18.7055 18.2042 18.8904 18.4588 19.137C18.7135 19.3836 18.9045 19.5685 19.0318 19.6301L19.2227 19.7534C19.3501 19.8151 19.4774 19.8767 19.6684 19.9384C19.8594 20 19.9867 20 20.114 20L22.2784 19.9384C22.4694 19.9384 22.6604 19.8767 22.7877 19.8151C22.915 19.7534 22.9787 19.6918 22.9787 19.5685C22.9787 19.5069 22.9787 19.3836 22.9787 19.3219C22.8514 19.1986 22.8514 19.137 22.8514 19.0753Z" fill="#DDE0F0"/>
</svg>
